[img]http://img843.imageshack.us/img843/8757/shawshankredemption.png[/img]

[b][size=200][color=black]PLOT[/color][/size][/b]

[code]Two imprisoned men bond over a number of years, finding solace and 
eventual redemption through acts of common decency. [/code]

[b][size=200][color=black]IMDB[/color][/size][/b]

[code]http://www.imdb.com/title/tt0111161/[/code]

[b][size=200][color=black]MOVIE INFO[/color][/size][/b]

[code]The Shawshank Redemption [1994] BRRip x264 AAC-V3nom

Format                                   : MPEG-4
Format profile                           : Base Media / Version 2
Codec ID                                 : mp42
File size                                : 353 MiB
Duration                                 : 2h 22mn
Overall bit rate mode                    : Variable
Overall bit rate                         : 346 Kbps
Encoded date                             : UTC 2013-02-08 11:00:00
Tagged date                              : UTC 2013-02-08 12:07:23

Video
ID                                       : 1
Format                                   : AVC
Format/Info                              : Advanced Video Codec
Format profile                           : Main@L2.1
Format settings, CABAC                   : Yes
Format settings, ReFrames                : 4 frames
Codec ID                                 : avc1
Codec ID/Info                            : Advanced Video Coding
Duration                                 : 2h 22mn
Bit rate mode                            : Variable
Bit rate                                 : 244 Kbps
Width                                    : 640 pixels
Height                                   : 256 pixels
Display aspect ratio                     : 16:9
Original display aspect ratio            : 16:9
Frame rate mode                          : Variable
Frame rate                               : 23.976 fps
Minimum frame rate                       : 5.994 fps
Maximum frame rate                       : 23.981 fps
Color space                              : YUV
Chroma subsampling                       : 4:2:0
Bit depth                                : 8 bits
Scan type                                : Progressive
Bits/(Pixel*Frame)                       : 0.062
Stream size                              : 250 MiB (71%)
Writing library                          : x264 core 112

Audio
ID                                       : 2
Format                                   : AAC
Format/Info                              : Advanced Audio Codec
Format profile                           : LC
Codec ID                                 : 40
Duration                                 : 2h 22mn
Bit rate mode                            : Variable
Bit rate                                 : 96.0 Kbps
Maximum bit rate                         : 147 Kbps
Channel(s)                               : 2 channels
Channel positions                        : Front: L R
Sampling rate                            : 44.1 KHz
Compression mode                         : Lossy
Delay relative to video                  : 209ms
Stream size                              : 97.9 MiB (28%)
Encoded date                             : UTC 2013-02-08 11:00:00
Tagged date                              : UTC 2013-02-08 12:07:16[/code]

[b][size=200][color=black]SOURCE[/color][/size][/b]

[code]The Shawshank Redemption (1994) 720p BrRip x264 - YIFY(Thanks)[/code]

[b][size=200][color=black]SCREENSHOTS[/color][/size][/b]

[img]http://img809.imageshack.us/img809/6049/theshawshankredemption1x.jpg[/img]

[img]http://kastatic.com/i2/users/133df62bbf28e62494bb17fe11078f1a.gif[/img][img]http://kastatic.com/i2/users/133df62bbf28e62494bb17fe11078f1a.gif[/img]